<svg width="16" height="16" viewBox="0 0 16 16" fill="none" xmlns="http://www.w3.org/2000/svg">
<path fill-rule="evenodd" clip-rule="evenodd" d="M6.33334 3.60784C6.78816 3.60784 7.15687 3.23914 7.15687 2.78431C7.15687 2.32949 6.78816 1.96078 6.33334 1.96078C5.87852 1.96078 5.50981 2.32949 5.50981 2.78431C5.50981 3.23914 5.87852 3.60784 6.33334 3.60784ZM8.11765 2.78431C8.11765 3.62804 7.53204 4.335 6.7451 4.52088V5.70288C7.28413 5.79886 7.75911 6.07992 8.10199 6.478L8.9942 5.96288C8.95957 5.82411 8.94119 5.67891 8.94119 5.52941C8.94119 4.54396 9.74005 3.7451 10.7255 3.7451C11.7109 3.7451 12.5098 4.54396 12.5098 5.52941C12.5098 6.51486 11.7109 7.31373 10.7255 7.31373C10.1853 7.31373 9.70125 7.07371 9.37404 6.69451L8.52111 7.18695C8.61523 7.44012 8.66667 7.71405 8.66667 8C8.66667 8.20886 8.63923 8.41131 8.58775 8.60394L9.52866 9.14718C9.8452 8.86074 10.265 8.68627 10.7255 8.68627C11.7109 8.68627 12.5098 9.48514 12.5098 10.4706C12.5098 11.456 11.7109 12.2549 10.7255 12.2549C9.74005 12.2549 8.94119 11.456 8.94119 10.4706C8.94119 10.244 8.98343 10.0272 9.06047 9.8278L8.2356 9.35156C7.88836 9.8394 7.35815 10.188 6.7451 10.2971V11.4791C7.53204 11.665 8.11765 12.372 8.11765 13.2157C8.11765 14.2011 7.31879 15 6.33334 15C5.34789 15 4.54903 14.2011 4.54903 13.2157C4.54903 12.372 5.13463 11.665 5.92157 11.4791V10.2971C4.82929 10.1026 4 9.14816 4 8C4 6.85184 4.82929 5.89736 5.92157 5.70288V4.52088C5.13463 4.33499 4.54903 3.62804 4.54903 2.78431C4.54903 1.79886 5.34789 1 6.33334 1C7.31879 1 8.11765 1.79886 8.11765 2.78431ZM7.70588 8C7.70588 8.75804 7.09137 9.37255 6.33333 9.37255C5.5753 9.37255 4.96078 8.75804 4.96078 8C4.96078 7.24196 5.5753 6.62745 6.33333 6.62745C7.09137 6.62745 7.70588 7.24196 7.70588 8ZM11.549 5.52941C11.549 5.98424 11.1803 6.35294 10.7255 6.35294C10.2707 6.35294 9.90197 5.98424 9.90197 5.52941C9.90197 5.07459 10.2707 4.70588 10.7255 4.70588C11.1803 4.70588 11.549 5.07459 11.549 5.52941ZM6.33334 14.0392C6.78816 14.0392 7.15687 13.6705 7.15687 13.2157C7.15687 12.7609 6.78816 12.3922 6.33334 12.3922C5.87852 12.3922 5.50981 12.7609 5.50981 13.2157C5.50981 13.6705 5.87852 14.0392 6.33334 14.0392ZM11.549 10.4706C11.549 10.9254 11.1803 11.2941 10.7255 11.2941C10.2707 11.2941 9.90197 10.9254 9.90197 10.4706C9.90197 10.0158 10.2707 9.64706 10.7255 9.64706C11.1803 9.64706 11.549 10.0158 11.549 10.4706Z" fill="#000000" fill-opacity="0.8"/>
</svg>
